<?xml version="1.0" standalone="no"?>
<!DOCTYPE svg PUBLIC "-//W3C//DTD SVG 1.1//EN" "http://www.w3.org/Graphics/SVG/1.1/DTD/svg11.dtd" >
<svg xmlns="http://www.w3.org/2000/svg">
<metadata></metadata>
<defs>
<font id="fancy_meregular" horiz-adv-x="1433" >
<font-face units-per-em="2048" ascent="1707" descent="-341" />
<missing-glyph horiz-adv-x="853" />
<glyph horiz-adv-x="1024" />
<glyph horiz-adv-x="1024" />
<glyph unicode="&#xd;" horiz-adv-x="2048" />
<glyph unicode=" "  horiz-adv-x="853" />
<glyph unicode="&#x09;" horiz-adv-x="853" />
<glyph unicode="&#xa0;" horiz-adv-x="853" />
<glyph unicode="A" d="M188 -3l201 834h-72q-12 0 -12 12t12 12h77l202 843q3 9 12 9h209h2h2q2 1 4 1q8 0 11 -10l408 -1701q1 -2 1 -4q0 -8 -11 -10h-2q-9 0 -12 8l-399 1666l-191 -802h281q12 0 12 -12v-208q0 -9 -7 -10q-1 0 -2 -1l-3 -1q-5 0 -8 3l-210 205h-70l-198 -826h89q12 0 12 -12 t-12 -12h-314q-6 0 -9 5q-3 8 -3 11zM215 5h186l198 826h-186zM418 855h186l200 828h-188zM727 831l172 -167v167h-172z" />
<glyph unicode="B" d="M232 -7v1702q0 12 12 12h306h1h164q180 -1 309 -130q128 -128 128 -309q0 -144 -86 -260t-223 -158q155 -28 257 -150q101 -120 101 -280q0 -181 -128 -309q-129 -129 -308 -130h-311h-210q-12 0 -12 12zM256 5h183v1678h-183v-1678zM463 5h302q169 1 291 123t122 292 q0 156 -105 275q-106 120 -261 136h-5q-62 2 -65 2h-187q-12 0 -12 12v208q0 5 7 12q9 3 13 -3l208 -204q153 23 256 139q101 114 101 271q0 171 -121 292q-122 122 -292 123h-208h-2h-42v-1678zM567 857h172l-172 169v-169z" />
<glyph unicode="C" d="M265 843q0 682 334 826q84 38 188 38q99 0 189 -38q100 -46 169 -138v177q0 12 12 12t12 -12v-211v-9v-208q0 -12 -12 -12h-208q-7 0 -10 7q-3 10 1 14l202 206q-71 105 -174 152q-82 36 -181 36q-98 0 -179 -34q-36 -15 -86 -53v-1500v-6q108 -87 265 -87q232 0 358 193 q8 11 16 4q11 -5 3 -17q-132 -203 -377 -203q-81 0 -147 20q-68 21 -140 79t-121 151q-49 92 -82 250q-32 153 -32 363zM288 843q0 -535 210 -732v1466q-210 -195 -210 -734zM976 1292h169v174z" />
<glyph unicode="D" d="M244 -5v1701q0 12 12 12h307h2q94 -2 176 -29q87 -29 168 -94q83 -67 144 -163q61 -98 99 -246q38 -150 38 -333q0 -405 -188 -631q-187 -224 -529 -227q-3 0 -4 -1t-3 -1h-89h-2h-119q-12 0 -12 12zM268 7h109q14 0 33 1t41 1v1675h-12h-2h-169v-1677zM474 9 q91 2 175 18q79 16 181 72q98 54 169 142q72 89 119 242q48 156 48 360q0 179 -36 324q-36 144 -96 239q-59 93 -139 158q-78 63 -161 92q-81 28 -169 28h-91v-1675z" />
<glyph unicode="E" d="M242 843q0 12 12 12h62v840q0 12 12 12h851q12 0 12 -12v-212q0 -11 -7 -12t-12 4l-213 208h-409v-828h274q12 0 12 -12v-208q0 -7 -8 -10q0 -2 -4 -2q-5 0 -8 3l-212 205h-54v-826h413l209 207q2 6 12 3q7 -1 7 -12v-210q0 -12 -12 -12h-211h-640q-12 0 -12 12v838h-62 q-12 0 -12 12zM340 5h186v826h-186v-826zM340 855h186v828h-186v-828zM638 831l174 -169v169h-174zM993 1683l174 -173v173h-174zM997 5h170v171z" />
<glyph unicode="F" d="M244 843q0 12 12 12h58v840q0 12 12 12h852q12 0 12 -12v-212q0 -11 -7 -12t-12 4l-214 208h-409v-828h278q12 0 12 -12v-208q0 -7 -9 -10q0 -2 -3 -2q-6 0 -9 3l-211 205h-58v-838q0 -12 -12 -12h-210q-12 0 -12 12v838h-58q-12 0 -12 12zM338 5h186v826h-186v-826z M338 855h186v828h-186v-828zM640 831l174 -169v169h-174zM992 1683l174 -173v173h-174z" />
<glyph unicode="G" d="M181 843q0 681 334 828q86 36 188 36q104 0 191 -38q118 -53 195 -177q7 -9 -4 -17q-10 -7 -15 5q-74 119 -186 167q-82 36 -181 36q-103 0 -177 -34q-46 -20 -86 -52v-1501l-1 -4q110 -89 264 -89q243 0 370 213q126 211 128 620h-450l-212 -205q-3 -3 -8 -3q-2 2 -4 2 q-6 1 -6 10v208q0 12 10 12h754q12 0 12 -12t-12 -12h-60q0 -208 -32 -359q-34 -160 -83 -248q-52 -93 -122 -150q-72 -58 -140 -79q-66 -20 -145 -20q-81 0 -147 20q-68 21 -140 79t-121 151q-49 92 -82 250q-32 153 -32 363zM205 843q0 -534 211 -732v1466 q-211 -196 -211 -734zM543 669l174 167h-174v-167z" />
<glyph unicode="H" d="M198 845q0 12 10 12h58v839q0 12 12 12h306q12 0 12 -12t-12 -12h-84v-827h292v-248l-232 224h-60v-826h84q12 0 12 -12t-12 -12h-306q-12 0 -12 12v838h-58q-10 0 -10 12zM290 7h188v826h-188v-826zM290 857h188v827h-188v-827zM594 833l174 -169v169h-174zM906 -5v1701 q0 12 12 12h307q11 0 11 -12t-11 -12h-85v-1677h85q11 0 11 -12t-11 -12h-307q-12 0 -12 12zM930 7h188v1677h-188v-1677z" />
<glyph unicode="I" horiz-adv-x="849" d="M259 -7v1702q0 12 12 12h308q12 0 12 -12t-12 -12h-84v-1678h84q12 0 12 -12t-12 -12h-308q-12 0 -12 12zM283 5h188v1678h-188v-1678z" />
<glyph unicode="J" d="M174 838q-4 4 -4 7.5t4 7.5h2q3 5 10 5h208q12 0 12 -11v-207q0 -11 -7 -12h-5q-5 0 -8 3l-188 183q4 -399 131 -605q126 -206 367 -206q155 0 263 87v2v1601v2q0 12 12 12h331q12 0 12 -12t-12 -12h-83v-838q-2 0 -2 -2h2q0 -203 -33 -359q-33 -158 -83 -250 q-51 -95 -121 -153q-71 -59 -140 -80t-146 -21q-82 0 -146 20q-68 21 -139 79q-70 57 -122 150q-48 85 -82 248q-33 156 -33 361zM210 836l172 -169v169h-172zM983 111q212 198 212 732v2v838h-212v-1572z" />
<glyph unicode="K" d="M285 -7v1702q0 12 12 12h307q12 0 12 -12t-12 -12h-83v-799l616 818q4 6 9 6q4 0 8 -3q5 -4 5 -9q0 -4 -4 -8l-484 -644q5 -5 5 -6l481 -1040q2 -4 2 -7q0 -6 -7 -8q-2 -2 -5 -2q-8 0 -12 7l-478 1038l-136 -181v-840h83q12 0 12 -12t-12 -12h-307q-12 0 -12 12zM309 5 h188v809l-186 -247l-2 -2v-560zM309 604l188 249v830h-188v-1079z" />
<glyph unicode="L" d="M278 -7v1702q0 12 12 12h302q12 0 12 -12t-12 -12h-78v-1678h411l210 207q4 6 14 3q6 -2 6 -12v-210q0 -12 -12 -12h-213h-640q-12 0 -12 12zM302 5h188v1678h-188v-1678zM959 5h173v171z" />
<glyph unicode="M" horiz-adv-x="2153" d="M150 14l405 1684q0 9 10 9h326q12 0 12 -12q0 -11 -12 -11h-96l282 -1172l285 1186q0 9 10 9h326q12 0 12 -12q0 -11 -12 -11h-95l349 -1462q6 -4 6 -9l32 -145l12 -54q2 -2 0 -5l2 -4q0 -6 -2 -10q-5 -5 -10 -5h-205q-5 0 -12 7q-1 4 2 12l155 198l-348 1450l-394 -1647 q0 -12 -12 -12h-209q-5 0 -10 5q-2 4 -2 11l108 449l-288 1194l-395 -1647q0 -12 -12 -12h-208q-5 0 -10 5q-2 4 -2 11zM177 22h185l397 1662h-184zM985 22h184l398 1662h-185l-293 -1223q0 -3 -2 -5zM1811 14h167l-12 49l-27 114z" />
<glyph unicode="N" horiz-adv-x="1467" d="M217 -7v1702q0 12 12 12h307q12 0 12 -12t-12 -12h-80l515 -1615v1627q0 12 12 12h307q12 0 12 -12t-12 -12h-83v-1690q0 -12 -12 -12h-212q-3 0 -5 2q-2 0 -2 2q-3 0 -3 5l-521 1628v-1625q0 -12 -12 -12h-211q-12 0 -12 12zM241 5h187v1678h-187v-1678zM995 5h188v1678 h-188v-1678z" />
<glyph unicode="O" d="M195 845q0 679 334 826q87 37 188 37q103 0 191 -39q331 -147 331 -824q0 -211 -32 -364q-33 -158 -82 -250q-49 -93 -121 -151q-70 -57 -140 -78q-69 -21 -147 -21t-147 21q-70 21 -140 78q-72 58 -121 151q-49 92 -82 250q-32 153 -32 364zM218 845q0 -535 212 -732 v1464q-212 -197 -212 -732zM452 92q108 -87 265 -87q244 0 371 214t127 626q0 663 -317 804q-80 35 -181 35q-102 0 -178 -35q-44 -19 -85 -52v-1501l-1 -2z" />
<glyph unicode="P" d="M268 -7v1702q0 12 12 12h305h2h164q179 -1 308 -130q127 -127 127 -309q0 -168 -111 -292q-110 -123 -276 -143h-2q-2 0 -2 2h-204q-12 0 -12 10v208q0 8 6 12q5 4 12 -3l210 -204q152 23 255 139q102 115 102 271q0 171 -121 292q-122 122 -292 123h-208h-2h-41v-1678 h85q12 0 12 -12t-12 -12h-305q-12 0 -12 12zM290 5h186v1678h-186v-1678zM602 857h173l-173 169v-169z" />
<glyph unicode="Q" d="M234 845q0 679 334 826q87 37 188 37q102 0 189 -39q332 -147 332 -824q0 -535 -209 -741l188 -188q4 -4 4 -8q0 -3 -4 -7l-147 -148q-4 -4 -8 -4q-1 0 -5 2q-7 3 -7 10l-5 294l-33 32q-119 -106 -295 -106q-78 0 -147 21q-70 21 -140 78q-72 58 -121 151q-49 92 -82 250 q-32 153 -32 364zM258 845q0 -535 210 -732v1464q-210 -195 -210 -732zM492 92q110 -89 264 -89q163 0 278 101l-51 51q-10 7 0 17q7 7 17 0l51 -53q203 203 203 726q0 660 -319 804q-76 35 -179 35q-102 0 -179 -35q-46 -21 -85 -52v-1501v-4zM1108 31l5 -241l118 118z" />
<glyph unicode="R" d="M244 -7v1702q0 12 10 12h307h2h164q179 -1 308 -130q127 -127 127 -309q0 -162 -101 -281q-103 -121 -259 -149l65 -65q323 -344 323 -775v-5q0 -12 -11 -12q-12 0 -12 12q0 429 -317 765q-27 27 -77 75q-2 0 -2 2h-204q-12 0 -12 10v208q0 8 6 12q5 4 12 -3l146 -140h1 l2 -4l61 -60q151 22 254 139q101 114 101 271q0 170 -120 292t-291 123h-208h-2h-41v-1678h85q12 0 12 -12t-12 -12h-307q-10 0 -10 12zM266 5h186v1678h-186v-1678zM577 857h172q-26 28 -42 44l-130 125v-169z" />
<glyph unicode="S" d="M270 1270q0 182 127 309q128 128 308 129h7q30 0 59 -4q28 -4 91 -20q59 -15 115 -55q59 -42 98 -100v181q0 12 12 12t12 -12v-220q3 -5 0 -10v-198q0 -12 -12 -12h-208q-7 0 -10 8t1 12l198 205q-39 65 -93 106q-58 44 -112 58q-60 16 -91 20q-37 5 -60 5h-7 q-92 0 -178 -40v-755q81 -31 159 -31h5h16h1h9h8h4q204 0 319 -130q116 -131 116 -306q0 -181 -128 -309q-129 -129 -309 -130h-29q-38 0 -74 7q-47 9 -93 27q-56 22 -110 67q-56 47 -98 117q-7 9 3 16q13 5 17 -4q39 -63 96 -111q53 -44 108 -64q51 -19 90 -25q36 -6 68 -6 h20q96 0 185 44v746q-85 38 -183 38h-14h-22h-5q-193 0 -305 130q-111 129 -111 305zM294 1270q0 -117 55 -217q56 -101 156 -152v729q-93 -51 -153 -149q-58 -95 -58 -211zM908 1294h167v174zM934 65q92 52 150 149q56 93 56 208q0 112 -54 211q-55 100 -152 152v-720z" />
<glyph unicode="T" d="M275 1695q0 12 12 12h314h360h186q12 0 12 -12v-212q0 -9 -7 -12q-10 -3 -14 4l-211 208h-103v-1690q0 -12 -12 -12h-211q-10 0 -10 12v1690h-304q-12 0 -12 12zM613 5h187v1678h-187v-1678zM961 1683l174 -173v173h-174z" />
<glyph unicode="U" horiz-adv-x="1467" d="M212 843v2v848q0 12 12 12l1 1q1 1 4 1h305q12 0 12 -12t-12 -12h-63v-1591l-2 -2q112 -88 265 -88q244 0 371 214t127 627v632l-205 211q-4 4 -1 12q1 7 10 7h208v2q12 0 12 -12v-210v-650q0 -209 -32 -360q-34 -160 -83 -248q-52 -94 -122 -149q-72 -57 -139 -78 q-64 -20 -146 -20q-81 0 -147 20q-68 21 -140 79t-121 151q-49 92 -82 250q-32 153 -32 363zM236 843q0 -536 211 -732v1572h-211v-838v-2zM1063 1683l169 -174v174h-169z" />
<glyph unicode="V" d="M189 1693q-1 2 2 10q3 5 9 5h314q12 0 12 -12t-12 -12h-89l396 -1652l350 1456l-156 202q-3 8 0 12q2 6 11 6h208q12 0 12 -12l-1 -1q-1 -1 -1 -4l-408 -1700q-3 -8 -12 -8h-1h-2h-2h-211q-11 0 -11 8zM215 1684l403 -1679h186l-403 1679h-186zM1050 1684l128 -167 l41 167h-169z" />
<glyph unicode="W" horiz-adv-x="2167" d="M147 1693q-1 1 -1 3q0 3 2 7q4 4 9 4h311q12 0 12 -11q0 -12 -12 -12h-87l392 -1635l289 1195l-108 449q-1 2 2 10q4 4 8 4h311q12 0 12 -11q0 -12 -12 -12h-87l392 -1635l349 1449l-156 198q-4 4 -1 14q3 5 10 5h206q6 0 9 -3q3 -8 2 -10v-6v-5l-405 -1682q0 -9 -10 -9 h-4h-3h-208q-9 0 -12 9l-284 1186l-286 -1186q-3 -9 -10 -9h-4h-3h-209q-8 0 -11 9zM172 1684l398 -1662h184l-397 1662h-185zM980 1684l104 -433q0 -3 1 -5l292 -1224h185l-398 1662h-184zM1806 1693l129 -166l28 118l10 48h-167z" />
<glyph unicode="X" d="M232 1690q-2 4 -2 7t2 5q3 5 10 5h313q12 0 12 -12t-12 -12h-84l304 -702l276 548l-129 159q-5 5 -2 12q1 7 10 7h213q5 0 7 -2q2 0 2 -2q14 -3 5 -15l-370 -736l414 -955h2v-2v-2v-2v-3l-2 -2l-1 -1l-2 -2l-2 -2h-5h-210q-11 0 -12 7l-309 713l-358 -713q-4 -7 -12 -7 h-5q-9 7 -5 17l369 731zM259 1683l403 -927l99 198l-316 729h-186zM674 729l314 -724h186l-401 920zM956 1683l107 -130l65 130h-172z" />
<glyph unicode="Y" d="M229 1690q-2 11 8 15q3 0 4 1t3 1h213q8 0 11 -7t-2 -12l-154 -219l296 -1092l315 1318q3 8 9 8q2 2 5 2h331q12 0 12 -12q0 -10 -12 -10h-113l-406 -1693q-1 -10 -12 -10h-210h-3v1h-3q0 2 -2 2v2l-2 1l-2 2v3v2v2l81 334zM256 1683l49 -185l128 185h-177zM543 3h186 l401 1678h-186l-324 -1352q1 -2 -2 -10z" />
<glyph unicode="Z" d="M276 -3l642 1686h-404l-214 -208q-7 -7 -12 -4q-6 1 -6 12v212q0 12 12 12h851q7 0 10 -5q3 -8 2 -11l-642 -1688h408l212 205q7 6 14 2q6 -2 6 -10v-209q0 -11 -12 -11h-855q-12 0 -12 11v2v2v2zM305 5h185l638 1678h-184zM305 1510l175 173h-175v-173zM957 3h175v169z " />
<glyph unicode="a" d="M188 -3l201 834h-72q-12 0 -12 12t12 12h77l202 843q3 9 12 9h209h2h2q2 1 4 1q8 0 11 -10l408 -1701q1 -2 1 -4q0 -8 -11 -10h-2q-9 0 -12 8l-399 1666l-191 -802h281q12 0 12 -12v-208q0 -9 -7 -10q-1 0 -2 -1l-3 -1q-5 0 -8 3l-210 205h-70l-198 -826h89q12 0 12 -12 t-12 -12h-314q-6 0 -9 5q-3 8 -3 11zM215 5h186l198 826h-186zM418 855h186l200 828h-188zM727 831l172 -167v167h-172z" />
<glyph unicode="b" d="M232 -7v1702q0 12 12 12h306h1h164q180 -1 309 -130q128 -128 128 -309q0 -144 -86 -260t-223 -158q155 -28 257 -150q101 -120 101 -280q0 -181 -128 -309q-129 -129 -308 -130h-311h-210q-12 0 -12 12zM256 5h183v1678h-183v-1678zM463 5h302q169 1 291 123t122 292 q0 156 -105 275q-106 120 -261 136h-5q-62 2 -65 2h-187q-12 0 -12 12v208q0 5 7 12q9 3 13 -3l208 -204q153 23 256 139q101 114 101 271q0 171 -121 292q-122 122 -292 123h-208h-2h-42v-1678zM567 857h172l-172 169v-169z" />
<glyph unicode="c" d="M265 843q0 682 334 826q84 38 188 38q99 0 189 -38q100 -46 169 -138v177q0 12 12 12t12 -12v-211v-9v-208q0 -12 -12 -12h-208q-7 0 -10 7q-3 10 1 14l202 206q-71 105 -174 152q-82 36 -181 36q-98 0 -179 -34q-36 -15 -86 -53v-1500v-6q108 -87 265 -87q232 0 358 193 q8 11 16 4q11 -5 3 -17q-132 -203 -377 -203q-81 0 -147 20q-68 21 -140 79t-121 151q-49 92 -82 250q-32 153 -32 363zM288 843q0 -535 210 -732v1466q-210 -195 -210 -734zM976 1292h169v174z" />
<glyph unicode="d" d="M244 -5v1701q0 12 12 12h307h2q94 -2 176 -29q87 -29 168 -94q83 -67 144 -163q61 -98 99 -246q38 -150 38 -333q0 -405 -188 -631q-187 -224 -529 -227q-3 0 -4 -1t-3 -1h-89h-2h-119q-12 0 -12 12zM268 7h109q14 0 33 1t41 1v1675h-12h-2h-169v-1677zM474 9 q91 2 175 18q79 16 181 72q98 54 169 142q72 89 119 242q48 156 48 360q0 179 -36 324q-36 144 -96 239q-59 93 -139 158q-78 63 -161 92q-81 28 -169 28h-91v-1675z" />
<glyph unicode="e" d="M242 843q0 12 12 12h62v840q0 12 12 12h851q12 0 12 -12v-212q0 -11 -7 -12t-12 4l-213 208h-409v-828h274q12 0 12 -12v-208q0 -7 -8 -10q0 -2 -4 -2q-5 0 -8 3l-212 205h-54v-826h413l209 207q2 6 12 3q7 -1 7 -12v-210q0 -12 -12 -12h-211h-640q-12 0 -12 12v838h-62 q-12 0 -12 12zM340 5h186v826h-186v-826zM340 855h186v828h-186v-828zM638 831l174 -169v169h-174zM993 1683l174 -173v173h-174zM997 5h170v171z" />
<glyph unicode="f" d="M244 843q0 12 12 12h58v840q0 12 12 12h852q12 0 12 -12v-212q0 -11 -7 -12t-12 4l-214 208h-409v-828h278q12 0 12 -12v-208q0 -7 -9 -10q0 -2 -3 -2q-6 0 -9 3l-211 205h-58v-838q0 -12 -12 -12h-210q-12 0 -12 12v838h-58q-12 0 -12 12zM338 5h186v826h-186v-826z M338 855h186v828h-186v-828zM640 831l174 -169v169h-174zM992 1683l174 -173v173h-174z" />
<glyph unicode="g" d="M181 843q0 681 334 828q86 36 188 36q104 0 191 -38q118 -53 195 -177q7 -9 -4 -17q-10 -7 -15 5q-74 119 -186 167q-82 36 -181 36q-103 0 -177 -34q-46 -20 -86 -52v-1501l-1 -4q110 -89 264 -89q243 0 370 213q126 211 128 620h-450l-212 -205q-3 -3 -8 -3q-2 2 -4 2 q-6 1 -6 10v208q0 12 10 12h754q12 0 12 -12t-12 -12h-60q0 -208 -32 -359q-34 -160 -83 -248q-52 -93 -122 -150q-72 -58 -140 -79q-66 -20 -145 -20q-81 0 -147 20q-68 21 -140 79t-121 151q-49 92 -82 250q-32 153 -32 363zM205 843q0 -534 211 -732v1466 q-211 -196 -211 -734zM543 669l174 167h-174v-167z" />
<glyph unicode="h" d="M198 845q0 12 10 12h58v839q0 12 12 12h306q12 0 12 -12t-12 -12h-84v-827h292v-248l-232 224h-60v-826h84q12 0 12 -12t-12 -12h-306q-12 0 -12 12v838h-58q-10 0 -10 12zM290 7h188v826h-188v-826zM290 857h188v827h-188v-827zM594 833l174 -169v169h-174zM906 -5v1701 q0 12 12 12h307q11 0 11 -12t-11 -12h-85v-1677h85q11 0 11 -12t-11 -12h-307q-12 0 -12 12zM930 7h188v1677h-188v-1677z" />
<glyph unicode="i" horiz-adv-x="849" d="M259 -7v1702q0 12 12 12h308q12 0 12 -12t-12 -12h-84v-1678h84q12 0 12 -12t-12 -12h-308q-12 0 -12 12zM283 5h188v1678h-188v-1678z" />
<glyph unicode="j" d="M174 838q-4 4 -4 7.5t4 7.5h2q3 5 10 5h208q12 0 12 -11v-207q0 -11 -7 -12h-5q-5 0 -8 3l-188 183q4 -399 131 -605q126 -206 367 -206q155 0 263 87v2v1601v2q0 12 12 12h331q12 0 12 -12t-12 -12h-83v-838q-2 0 -2 -2h2q0 -206 -33 -363q-33 -160 -83 -250 q-51 -93 -121 -151t-139 -79q-66 -20 -147 -20q-82 0 -146 20q-68 21 -139 79q-70 57 -122 150q-48 85 -82 248q-33 156 -33 361zM210 836l172 -169v169h-172zM983 111q212 198 212 732v2v838h-212v-1572z" />
<glyph unicode="k" d="M285 -7v1702q0 12 12 12h307q12 0 12 -12t-12 -12h-83v-799l616 818q4 6 9 6q4 0 8 -3q5 -4 5 -9q0 -4 -4 -8l-484 -644q5 -5 5 -6l481 -1040q2 -4 2 -7q0 -6 -7 -8q-2 -2 -5 -2q-8 0 -12 7l-478 1038l-136 -181v-840h83q12 0 12 -12t-12 -12h-307q-12 0 -12 12zM309 5 h188v809l-186 -247l-2 -2v-560zM309 604l188 249v830h-188v-1079z" />
<glyph unicode="l" d="M278 -7v1702q0 12 12 12h302q12 0 12 -12t-12 -12h-78v-1678h411l210 207q4 6 14 3q6 -2 6 -12v-210q0 -12 -12 -12h-213h-640q-12 0 -12 12zM302 5h188v1678h-188v-1678zM959 5h173v171z" />
<glyph unicode="m" horiz-adv-x="2153" d="M150 14l405 1684q0 9 10 9h326q12 0 12 -12q0 -11 -12 -11h-96l282 -1172l285 1186q0 9 10 9h326q12 0 12 -12q0 -11 -12 -11h-95l349 -1462q6 -4 6 -9l32 -145l12 -54q2 -2 0 -5l2 -4q0 -6 -2 -10q-5 -5 -10 -5h-205q-5 0 -12 7q-1 4 2 12l155 198l-348 1450l-394 -1647 q0 -12 -12 -12h-209q-5 0 -10 5q-2 4 -2 11l108 449l-288 1194l-395 -1647q0 -12 -12 -12h-208q-5 0 -10 5q-2 4 -2 11zM177 22h185l397 1662h-184zM985 22h184l398 1662h-185l-293 -1223q0 -3 -2 -5zM1811 14h167l-12 49l-27 114z" />
<glyph unicode="n" horiz-adv-x="1467" d="M217 -7v1702q0 12 12 12h307q12 0 12 -12t-12 -12h-80l515 -1615v1627q0 12 12 12h307q12 0 12 -12t-12 -12h-83v-1690q0 -12 -12 -12h-212q-3 0 -5 2q-2 0 -2 2q-3 0 -3 5l-521 1628v-1625q0 -12 -12 -12h-211q-12 0 -12 12zM241 5h187v1678h-187v-1678zM995 5h188v1678 h-188v-1678z" />
<glyph unicode="o" d="M195 845q0 679 334 826q87 37 188 37q103 0 191 -39q331 -147 331 -824q0 -211 -32 -364q-33 -158 -82 -250q-49 -93 -121 -151q-70 -57 -140 -78q-69 -21 -147 -21t-147 21q-70 21 -140 78q-72 58 -121 151q-49 92 -82 250q-32 153 -32 364zM218 845q0 -535 212 -732 v1464q-212 -197 -212 -732zM452 92q108 -87 265 -87q244 0 371 214t127 626q0 663 -317 804q-80 35 -181 35q-102 0 -178 -35q-44 -19 -85 -52v-1501l-1 -2z" />
<glyph unicode="p" d="M268 -7v1702q0 12 12 12h305h2h164q179 -1 308 -130q127 -127 127 -309q0 -168 -111 -292q-110 -123 -276 -143h-2q-2 0 -2 2h-204q-12 0 -12 10v208q0 8 6 12q5 4 12 -3l210 -204q152 23 255 139q102 115 102 271q0 171 -121 292q-122 122 -292 123h-208h-2h-41v-1678 h85q12 0 12 -12t-12 -12h-305q-12 0 -12 12zM290 5h186v1678h-186v-1678zM602 857h173l-173 169v-169z" />
<glyph unicode="q" d="M234 845q0 679 334 826q87 37 188 37q102 0 189 -39q332 -147 332 -824q0 -535 -209 -741l188 -188q4 -4 4 -8q0 -3 -4 -7l-147 -148q-4 -4 -8 -4q-1 0 -5 2q-7 3 -7 10l-5 294l-33 32q-119 -106 -295 -106q-78 0 -147 21q-70 21 -140 78q-72 58 -121 151q-49 92 -82 250 q-32 153 -32 364zM258 845q0 -535 210 -732v1464q-210 -195 -210 -732zM492 92q110 -89 264 -89q163 0 278 101l-51 51q-10 7 0 17q7 7 17 0l51 -53q203 203 203 726q0 660 -319 804q-76 35 -179 35q-102 0 -179 -35q-46 -21 -85 -52v-1501v-4zM1108 31l5 -241l118 118z" />
<glyph unicode="r" d="M244 -7v1702q0 12 10 12h307h2h164q179 -1 308 -130q127 -127 127 -309q0 -162 -101 -281q-103 -121 -259 -149l65 -65q323 -344 323 -775v-5q0 -12 -11 -12q-12 0 -12 12q0 429 -317 765q-27 27 -77 75q-2 0 -2 2h-204q-12 0 -12 10v208q0 8 6 12q5 4 12 -3l146 -140h1 l2 -4l61 -60q151 22 254 139q101 114 101 271q0 170 -120 292t-291 123h-208h-2h-41v-1678h85q12 0 12 -12t-12 -12h-307q-10 0 -10 12zM266 5h186v1678h-186v-1678zM577 857h172q-26 28 -42 44l-130 125v-169z" />
<glyph unicode="s" d="M270 1270q0 182 127 309q128 128 308 129h7q30 0 59 -4q28 -4 91 -20q59 -15 115 -55q59 -42 98 -100v181q0 12 12 12t12 -12v-220q3 -5 0 -10v-198q0 -12 -12 -12h-208q-7 0 -10 8t1 12l198 205q-39 65 -93 106q-58 44 -112 58q-60 16 -91 20q-37 5 -60 5h-7 q-92 0 -178 -40v-755q81 -31 159 -31h5h16h1h9h8h4q204 0 319 -130q116 -131 116 -306q0 -181 -128 -309q-129 -129 -309 -130h-29q-38 0 -74 7q-47 9 -93 27q-56 22 -110 67q-56 47 -98 117q-7 9 3 16q13 5 17 -4q39 -63 96 -111q53 -44 108 -64q51 -19 90 -25q36 -6 68 -6 h20q96 0 185 44v746q-85 38 -183 38h-14h-22h-5q-193 0 -305 130q-111 129 -111 305zM294 1270q0 -117 55 -217q56 -101 156 -152v729q-93 -51 -153 -149q-58 -95 -58 -211zM908 1294h167v174zM934 65q92 52 150 149q56 93 56 208q0 112 -54 211q-55 100 -152 152v-720z" />
<glyph unicode="t" d="M275 1695q0 12 12 12h314h360h186q12 0 12 -12v-212q0 -9 -7 -12q-10 -3 -14 4l-211 208h-103v-1690q0 -12 -12 -12h-211q-10 0 -10 12v1690h-304q-12 0 -12 12zM613 5h187v1678h-187v-1678zM961 1683l174 -173v173h-174z" />
<glyph unicode="u" horiz-adv-x="1467" d="M212 843v2v848q0 12 12 12l1 1q1 1 4 1h305q12 0 12 -12t-12 -12h-63v-1591l-2 -2q112 -88 265 -88q244 0 371 214t127 627v632l-205 211q-4 4 -1 12q1 7 10 7h208v2q12 0 12 -12v-210v-650q0 -209 -32 -360q-34 -160 -83 -248q-52 -94 -122 -149q-72 -57 -139 -78 q-64 -20 -146 -20q-81 0 -147 20q-68 21 -140 79t-121 151q-49 92 -82 250q-32 153 -32 363zM236 843q0 -536 211 -732v1572h-211v-838v-2zM1063 1683l169 -174v174h-169z" />
<glyph unicode="v" d="M189 1693q-1 2 2 10q3 5 9 5h314q12 0 12 -12t-12 -12h-89l396 -1652l350 1456l-156 202q-3 8 0 12q2 6 11 6h208q12 0 12 -12l-1 -1q-1 -1 -1 -4l-408 -1700q-3 -8 -12 -8h-1h-2h-2h-211q-11 0 -11 8zM215 1684l403 -1679h186l-403 1679h-186zM1050 1684l128 -167 l41 167h-169z" />
<glyph unicode="w" horiz-adv-x="2167" d="M147 1693q-1 1 -1 3q0 3 2 7q4 4 9 4h311q12 0 12 -11q0 -12 -12 -12h-87l392 -1635l289 1195l-108 449q-1 2 2 10q4 4 8 4h311q12 0 12 -11q0 -12 -12 -12h-87l392 -1635l349 1449l-156 198q-4 4 -1 14q3 5 10 5h206q6 0 9 -3q3 -8 2 -10v-6v-5l-405 -1682q0 -9 -10 -9 h-4h-3h-208q-9 0 -12 9l-284 1186l-286 -1186q-3 -9 -10 -9h-4h-3h-209q-8 0 -11 9zM172 1684l398 -1662h184l-397 1662h-185zM980 1684l104 -433q0 -3 1 -5l292 -1224h185l-398 1662h-184zM1806 1693l129 -166l28 118l10 48h-167z" />
<glyph unicode="x" d="M232 1690q-2 4 -2 7t2 5q3 5 10 5h313q12 0 12 -12t-12 -12h-84l304 -702l276 548l-129 159q-5 5 -2 12q1 7 10 7h213q5 0 7 -2q2 0 2 -2q14 -3 5 -15l-370 -736l414 -955h2v-2v-2v-2v-3l-2 -2l-1 -1l-2 -2l-2 -2h-5h-210q-11 0 -12 7l-309 713l-358 -713q-4 -7 -12 -7 h-5q-9 7 -5 17l369 731zM259 1683l403 -927l99 198l-316 729h-186zM674 729l314 -724h186l-401 920zM956 1683l107 -130l65 130h-172z" />
<glyph unicode="y" d="M229 1690q-2 11 8 15q3 0 4 1t3 1h213q8 0 11 -7t-2 -12l-154 -219l296 -1092l315 1318q3 8 9 8q2 2 5 2h331q12 0 12 -12q0 -10 -12 -10h-113l-406 -1693q-1 -10 -12 -10h-210h-3v1h-3q0 2 -2 2v2l-2 1l-2 2v3v2v2l81 334zM256 1683l49 -185l128 185h-177zM543 3h186 l401 1678h-186l-324 -1352q1 -2 -2 -10z" />
<glyph unicode="z" d="M276 -3l642 1686h-404l-214 -208q-7 -7 -12 -4q-6 1 -6 12v212q0 12 12 12h851q7 0 10 -5q3 -8 2 -11l-642 -1688h408l212 205q7 6 14 2q6 -2 6 -10v-209q0 -11 -12 -11h-855q-12 0 -12 11v2v2v2zM305 5h185l638 1678h-184zM305 1510l175 173h-175v-173zM957 3h175v169z " />
<glyph unicode="{" horiz-adv-x="853" />
<glyph unicode="|" horiz-adv-x="853" />
<glyph unicode="}" horiz-adv-x="853" />
<glyph unicode="~" horiz-adv-x="853" />
<glyph horiz-adv-x="853" />
<glyph horiz-adv-x="853" />
<glyph horiz-adv-x="853" />
<glyph horiz-adv-x="853" />
<glyph horiz-adv-x="853" />
<glyph horiz-adv-x="853" />
<glyph unicode="&#x85;" horiz-adv-x="853" />
<glyph horiz-adv-x="853" />
<glyph horiz-adv-x="853" />
<glyph horiz-adv-x="853" />
<glyph horiz-adv-x="853" />
<glyph horiz-adv-x="853" />
<glyph horiz-adv-x="853" />
<glyph horiz-adv-x="853" />
<glyph horiz-adv-x="853" />
<glyph horiz-adv-x="853" />
<glyph horiz-adv-x="853" />
<glyph horiz-adv-x="853" />
<glyph horiz-adv-x="853" />
<glyph horiz-adv-x="853" />
<glyph horiz-adv-x="853" />
<glyph horiz-adv-x="853" />
<glyph horiz-adv-x="853" />
<glyph horiz-adv-x="853" />
<glyph horiz-adv-x="853" />
<glyph horiz-adv-x="853" />
<glyph horiz-adv-x="853" />
<glyph horiz-adv-x="853" />
<glyph horiz-adv-x="853" />
<glyph horiz-adv-x="853" />
<glyph horiz-adv-x="853" />
<glyph horiz-adv-x="853" />
<glyph horiz-adv-x="853" />
<glyph unicode="&#x2000;" horiz-adv-x="861" />
<glyph unicode="&#x2001;" horiz-adv-x="1722" />
<glyph unicode="&#x2002;" horiz-adv-x="861" />
<glyph unicode="&#x2003;" horiz-adv-x="1722" />
<glyph unicode="&#x2004;" horiz-adv-x="574" />
<glyph unicode="&#x2005;" horiz-adv-x="430" />
<glyph unicode="&#x2006;" horiz-adv-x="287" />
<glyph unicode="&#x2007;" horiz-adv-x="287" />
<glyph unicode="&#x2008;" horiz-adv-x="215" />
<glyph unicode="&#x2009;" horiz-adv-x="344" />
<glyph unicode="&#x200a;" horiz-adv-x="95" />
<glyph unicode="&#x202f;" horiz-adv-x="344" />
<glyph unicode="&#x205f;" horiz-adv-x="430" />
<glyph unicode="&#x25fc;" horiz-adv-x="1706" d="M0 0v1707h1707v-1707h-1707z" />
</font>
</defs>
</svg>
